<svg xmlns="http://www.w3.org/2000/svg" version="1.1" xmlns:xlink="http://www.w3.org/1999/xlink" xmlns:svgjs="http://svgjs.com/svgjs" width="1000" height="1000"><rect width="1000" height="1000" rx="100" ry="100" fill="#ffffff"></rect><g transform="matrix(16.666666666666668,0,0,16.666666666666668,100.84287579854328,263.1268636367943)"><svg xmlns="http://www.w3.org/2000/svg" version="1.1" xmlns:xlink="http://www.w3.org/1999/xlink" xmlns:svgjs="http://svgjs.com/svgjs" width="48" height="29"><svg xmlns="http://www.w3.org/2000/svg" viewBox="0 0 48 29">
      <g fill="none" fill-rule="nonzero">
        <path fill="#FBBC05" d="M12.768.02C5.716.02 0 5.685 0 12.673c0 6.165 4.476 11.337 10.628 12.528.862.167.602.526.537.968-.15 1.01.038 2.348 2.042 2.21 6.126-.422 12.329-8.995 12.329-15.706C25.536 5.685 19.82.02 12.768.02Zm-.02 18.883c-3.535 0-6.4-2.84-6.4-6.342s2.865-6.341 6.4-6.341c3.533 0 6.398 2.839 6.398 6.341 0 3.502-2.865 6.342-6.399 6.342Z"></path>
        <path fill="#4285F4" d="M29.738 24.733c.21.1.444.156.692.156.572 0 1.073-.298 1.355-.746l.113-.185a21.878 21.878 0 0 0 2.027-4.389l.068-.205a1.57 1.57 0 0 1 .401-.668 1.606 1.606 0 0 1 2.258 0l6.256 6.154a1.606 1.606 0 0 0 2.257 0l2.26-2.248a1.572 1.572 0 0 0 0-2.237l-5.563-5.507a3.144 3.144 0 0 1 0-4.474l5.5-5.444a1.572 1.572 0 0 0 0-2.237l-2.26-2.24a1.606 1.606 0 0 0-2.258 0L36.651 6.59a1.606 1.606 0 0 1-2.257 0 1.571 1.571 0 0 1-.392-.637l-.057-.179a21.86 21.86 0 0 0-2.01-4.388l-.133-.216a1.605 1.605 0 0 0-2.026-.62l-3.012 1.353c-.558.247-.947.801-.947 1.446 0 .31.09.6.246.844l.136.211a15.475 15.475 0 0 1 2.362 8.238c0 3.027-.866 5.852-2.367 8.247l-.155.236a1.58 1.58 0 0 0 .692 2.254l3.007 1.355Z"></path>
      </g>
    </svg></svg></g></svg>