<?xml version="1.0" encoding="utf-8"?>
<!-- Generator: Adobe Illustrator 17.0.0, SVG Export Plug-In . SVG Version: 6.00 Build 0)  -->
<svg version="1.2" baseProfile="tiny" id="Layer_1" xmlns="http://www.w3.org/2000/svg" xmlns:xlink="http://www.w3.org/1999/xlink"
	 x="0px" y="0px" width="225.037px" height="162.461px" viewBox="0 0 225.037 162.461" overflow="visible" xml:space="preserve">
<g>
	<g>
		<path fill="#FBBC05" d="M70.569,0.073c-25.915,0-46.923,21.008-46.923,46.923c0,22.862,16.451,42.039,39.059,46.458
			c3.168,0.619,2.211,1.951,1.971,3.587c-0.548,3.747,0.142,8.71,7.507,8.198c22.513-1.566,45.308-33.355,45.308-58.242
			C117.492,21.081,96.483,0.073,70.569,0.073z M70.492,70.097c-12.988,0-23.516-10.529-23.516-23.516
			c0-12.987,10.528-23.516,23.516-23.516c12.988,0,23.516,10.529,23.516,23.516C94.008,59.568,83.48,70.097,70.492,70.097z"/>
		<path fill="#4285F4" d="M132.933,91.718c0.769,0.371,1.632,0.578,2.543,0.578c2.102,0,3.946-1.106,4.981-2.767l0.416-0.685
			c3.046-5.093,5.555-10.544,7.448-16.276l0.249-0.762c0.268-0.907,0.761-1.762,1.476-2.478c2.291-2.291,6.004-2.291,8.295,0
			l22.991,22.823c2.291,2.291,6.004,2.291,8.295,0l8.305-8.337c2.291-2.291,2.291-6.004,0-8.295l-20.444-20.422
			c-4.582-4.582-4.581-12.01,0-16.591l20.214-20.188c2.291-2.291,2.291-6.004,0-8.295l-8.306-8.306
			c-2.291-2.291-6.004-2.291-8.295,0l-22.76,22.717c-2.291,2.291-6.004,2.291-8.295,0c-0.685-0.685-1.166-1.498-1.441-2.362
			l-0.212-0.664c-1.874-5.729-4.363-11.18-7.388-16.274l-0.484-0.798c-1.029-1.693-2.89-2.824-5.016-2.824
			c-0.867,0-1.69,0.188-2.431,0.526l-11.069,5.017c-2.051,0.914-3.48,2.97-3.48,5.36c0,1.151,0.331,2.224,0.904,3.13l0.499,0.783
			c5.504,8.874,8.682,19.341,8.682,30.551c0,11.222-3.185,21.699-8.699,30.579l-0.571,0.876c-0.537,0.886-0.847,1.926-0.847,3.038
			c0,2.355,1.388,4.386,3.391,5.319L132.933,91.718z"/>
	</g>
	<path fill="#474E5E" d="M16.632,162.461c-5.477,0-9.62-1.427-12.424-4.282C1.402,155.323,0,151.058,0,145.381
		c0-5.677,1.402-9.943,4.208-12.798c2.805-2.855,6.947-4.283,12.424-4.283s9.618,1.428,12.424,4.283
		c2.805,2.855,4.208,7.121,4.208,12.798c0,5.677-1.403,9.943-4.208,12.798C26.251,161.034,22.11,162.461,16.632,162.461z
		 M16.632,156.635c3.054,0,5.403-0.888,7.046-2.664c1.643-1.776,2.465-4.639,2.465-8.59c0-3.951-0.814-6.814-2.44-8.59
		c-1.627-1.775-3.984-2.664-7.071-2.664c-3.055,0-5.403,0.889-7.046,2.664c-1.644,1.776-2.465,4.639-2.465,8.59
		c0,3.951,0.813,6.814,2.44,8.59C11.187,155.747,13.545,156.635,16.632,156.635z M75.029,161.913c-4.017,0-7.046-1.021-9.088-3.063
		c-2.041-2.041-3.063-5.071-3.063-9.088s1.021-7.046,3.063-9.088c2.041-2.041,5.07-3.063,9.088-3.063h9.013v5.03h-8.167
		c-2.091,0-3.603,0.373-4.532,1.12c-0.929,0.747-1.478,1.867-1.643,3.362h14.142v4.979H69.701c0.066,1.461,0.564,2.615,1.494,3.461
		c0.929,0.847,2.49,1.27,4.681,1.27h8.366v5.079H75.029z M133.027,161.913l-9.411-11.802v11.802h-6.673v-33.065h6.673v18.674
		l8.714-9.91h7.768l-9.959,10.856l10.856,13.445H133.027z M179.792,161.913v-5.03h12.599c1.56,0,2.341-0.779,2.341-2.34
		c0-1.527-0.781-2.291-2.341-2.291h-5.029c-2.358,0-4.183-0.631-5.478-1.892c-1.295-1.261-1.942-3.071-1.942-5.428
		c0-2.357,0.638-4.166,1.917-5.427c1.278-1.261,3.096-1.893,5.453-1.893h12.897v5.08h-11.105c-1.593,0-2.39,0.747-2.39,2.241
		c0,1.528,0.797,2.291,2.39,2.291h5.03c2.391,0,4.215,0.631,5.477,1.892c1.261,1.262,1.892,3.071,1.892,5.428
		c0,2.39-0.631,4.216-1.892,5.477c-1.262,1.262-3.087,1.892-5.477,1.892H179.792z M203.326,161.913v-5.03h12.599
		c1.56,0,2.341-0.779,2.341-2.34c0-1.527-0.781-2.291-2.341-2.291h-5.029c-2.358,0-4.183-0.631-5.478-1.892
		c-1.295-1.261-1.942-3.071-1.942-5.428c0-2.357,0.638-4.166,1.917-5.427c1.278-1.261,3.096-1.893,5.453-1.893h12.897v5.08h-11.105
		c-1.593,0-2.39,0.747-2.39,2.241c0,1.528,0.797,2.291,2.39,2.291h5.03c2.391,0,4.215,0.631,5.477,1.892
		c1.261,1.262,1.892,3.071,1.892,5.428c0,2.39-0.631,4.216-1.892,5.477c-1.262,1.262-3.087,1.892-5.477,1.892H203.326z
		 M164.503,140.003c-1.594-1.594-4.15-2.391-7.669-2.391h-10.587c-1.661,0-3.007,1.346-3.007,3.007v21.294h6.673v-19.072h5.527
		c1.693,0,2.913,0.373,3.66,1.12c0.747,0.747,1.12,1.967,1.12,3.66v14.292h6.673v-14.242
		C166.893,144.153,166.097,141.596,164.503,140.003z M105.061,128.848v8.764h-5.777c-4.017,0-7.046,1.021-9.088,3.062
		c-2.041,2.042-3.063,5.072-3.063,9.088c0,4.017,1.021,7.046,3.063,9.088c2.041,2.041,5.07,3.063,9.088,3.063h9.443
		c1.661,0,3.007-1.346,3.007-3.007v-30.058H105.061z M105.061,156.834h-3.984c-2.49,0-4.3-0.556-5.428-1.669
		c-1.129-1.112-1.693-2.913-1.693-5.403s0.564-4.299,1.693-5.428c1.128-1.128,2.938-1.693,5.428-1.693h3.984V156.834z
		 M53.12,137.612v19.072h-5.328c-1.693,0-2.913-0.373-3.66-1.12c-0.747-0.747-1.12-1.967-1.12-3.66v-14.292h-6.673v14.242
		c0,3.519,0.804,6.075,2.415,7.669c1.61,1.593,4.175,2.39,7.694,2.39h10.339c1.661,0,3.007-1.346,3.007-3.007v-21.294H53.12z
		 M169.989,161.913v-24.301h6.673v24.301H169.989z M173.325,128.841c-1.842,0-3.336,1.494-3.336,3.336s1.494,3.336,3.336,3.336
		s3.336-1.494,3.336-3.336S175.167,128.841,173.325,128.841z"/>
</g>
</svg>
