<svg version="1.1" id="Layer_1" xmlns="http://www.w3.org/2000/svg" x="0" y="0" viewBox="0 0 500 500" style="enable-background:new 0 0 500 500" xml:space="preserve"><style>.st0{display:none}.st1{fill:#0b96b9}.st1,.st2{display:inline}.st3{fill:#0b96b9}.st4{fill:#46bfe4}.st5{fill:#def1f8}.st6{fill:#c0e4f1}.st7{fill:#2c4973}.st12{fill:#6b247b}.st14{fill:#d3add2}.st16{fill:#df5c11}.st17{fill:#f5a468}.st18{fill:#ef7d2a}.st20{fill:#d60f31}.st21{fill:#eeb9c5}.st22{fill:#921826}.st25{fill:#64beae}.st26{fill:#36b397}.st30{fill:#f2fafd}.st31{fill:#11bae6}.st32,.st34,.st35{display:inline;fill:#b0cb28}.st34,.st35{fill:#8fbb23}.st35{fill:#c6d761}.st36,.st37,.st40{display:inline;fill:#ae662a}.st37,.st40{fill:#9a521c}.st40{fill:#d7ba98}.st41,.st42,.st43{display:inline;fill:#d1ad7d}.st42,.st43{fill:#b69261}.st43{fill:#e1c8b1}.st44{fill:#f8c81f}.st45{fill:#9c7f31}.st47{fill:#fae4a2}.st52{fill:#cfe5c6}.st54{display:inline;fill:#ffe083}.st56,.st57{fill:#e99728}.st57{display:inline}.st59{fill:#bb7342}.st60{fill:#7b4832}.st61{fill:#885138}.st64{fill:#fff}.st65{fill:#f4a09c}.st66{fill:#f7b9ba}.st70{fill:#838d92}.st72{fill:#6f6f6e}.st73{fill:#626161}.st77,.st78,.st80{display:inline;fill:#efbac5}.st78,.st80{fill:#d60e32}.st80{fill:#931827}.st82,.st83,.st84{display:inline;fill:#11bae6}.st83,.st84{fill:#def1f8}.st84{fill:#c0e4f1}</style><path d="M116.5 423.4c-3.3 0-6.6-.9-9.5-2.5-5.9-3.4-9.5-9.7-9.5-16.5V96.2c0-6.8 3.6-13.1 9.5-16.5 2.9-1.7 6.2-2.6 9.5-2.6s6.6.9 9.5 2.6l266.9 154.1c5.9 3.4 9.5 9.7 9.5 16.5 0 6.8-3.6 13.1-9.5 16.5L126 420.9c-3 1.7-6.3 2.5-9.5 2.5" style="fill:#e10b17"/><path class="st64" d="M121.9 275.2h16.2c14.9 0 21.2-8.6 21.2-20.9v-6.6c0-12.5-7.1-19.8-21.7-19.8H122v47.3h-.1zm8.1-6.8v-33.6h7.5c8.8 0 13.4 4.3 13.4 13.4v5.7c0 9.4-4 14.5-12.9 14.5h-8zM165 275.2h6.8c9.3 0 14.7-5.4 14.7-14.6V228H167v6.8h11.4v25.9c0 5.1-2.3 7.8-7 7.8H165v6.7zM209.7 275.2h16.4v-6.8h-14.9c-4 0-5.7-1.9-5.7-6.5v-7.8h18.2v-6.9h-18.2v-12.5h20.2V228h-28.4v34.5c0 8.4 4.2 12.7 12.4 12.7M232.7 275.2h33.8v-6.8h-22.6c6.4-8.5 18.5-27.5 22.3-36.7V228h-32.5v6.8h22c-3.9 9.4-16.4 27.8-23.1 36.3v4.1h.1zM271.7 275.2h33.8v-6.8H283c6.4-8.5 18.5-27.5 22.3-36.7V228h-32.4v6.8h22c-3.9 9.4-16.4 27.8-23.1 36.3l-.1 4.1zM324.4 275.2h8v-18.8l15.5-27.9v-.5H340l-11.3 21.6-11.1-21.6h-8.4v.5l15.2 28.2zM131.8 332.9h5.5v5.6h-5.5zM141.3 332.9h5.5v5.6h-5.5zM173.3 305.3v10.5c0 9.1-4 12.8-12.6 12.8v-4.8c4.7 0 7-2.3 7-7.1v-11.4h5.6zm0-4.6h-5.5v-5.6h5.5v5.6zM193.3 320.3h-6.6c-2.7 0-4.8-.9-6.2-2.6-1.4-1.6-2-3.8-2-6.5v-15.5h5.6v13.2c0 2.5.5 4.1 1.6 4.8.8.6 2.2.9 4.3.9h3.3v5.7z"/><path class="st64" d="M226.7 316.8v3.5h-35.4v-5.7h29.3c0-3.1-.9-5.8-2.6-8-2.1-2.6-5-3.8-8.7-3.8-1.2 0-2.6.3-4.2.9-1.8.8-3.3 1.8-4.5 3.2-.5-1.1-1.5-2.5-2.7-4.4 1.6-1.4 3.3-2.6 5.4-3.6 2.2-1 4.4-1.4 6.6-1.4 3.7 0 6.9.9 9.7 2.8 4.7 3.2 7.1 8.6 7.1 16.5M212.5 330H207v-5.6h5.5v5.6zM156.4 316.2v-5.4H144c1-2.3 2.4-3.9 4.1-4.7 1.4-.7 3.6-1.1 6.3-1.1v-5.2c-10.8 0-16.9 5.8-16.9 16.5h13.3l5.6-.1z"/><path class="st64" d="M151.4 310.8c-.6 7.8-4.7 12.5-12 12.5-3.8 0-6.7-1.1-8.8-3.5-2-2.2-3-5.2-3-8.9v-5H122v5.6c0 4.9 1.7 9 5 12.3s7.5 4.9 12.3 4.9h.4c4.9 0 9-1.7 12.3-4.9 2.2-2.1 3.6-4.6 4.4-7.4.3-1.1.8-3.5.8-5.6h-5.8z"/></svg>