<svg version="1.1" id="Layer_1" xmlns="http://www.w3.org/2000/svg" x="0" y="0" viewBox="0 0 500 500" style="enable-background:new 0 0 500 500" xml:space="preserve">
    <style>.st0{display:none}.st1{display:inline}.st2{fill:#838d92}.st3{fill:#d1d5ce}.st4{fill:#6f6f6e}.st5{fill:#626161}.st6{display:inline}.st6,.st7{fill:#0b96b9}.st8{fill:#46bfe4}.st9{fill:#def1f8}.st10{fill:#c0e4f1}.st11{fill:#2c4973}.st16{fill:#6b247b}.st18{fill:#d3add2}.st20{fill:#df5c11}.st21{fill:#f5a468}.st22{fill:#ef7d2a}.st24{fill:#d60f31}.st25{fill:#eeb9c5}.st26{fill:#921826}.st29{fill:#64beae}.st30{fill:#36b397}.st34{fill:#f2fafd}.st35{fill:#11bae6}.st36,.st38,.st39{display:inline;fill:#b0cb28}.st38,.st39{fill:#8fbb23}.st39{fill:#c6d761}.st40,.st41,.st44{display:inline;fill:#ae662a}.st41,.st44{fill:#9a521c}.st44{fill:#d7ba98}.st45,.st46,.st47{display:inline;fill:#d1ad7d}.st46,.st47{fill:#b69261}.st47{fill:#e1c8b1}.st48{fill:#f8c81f}.st49{fill:#9c7f31}.st51{fill:#fae4a2}.st56{fill:#cfe5c6}.st58{display:inline;fill:#ffe083}.st60,.st61{fill:#e99728}.st61{display:inline}.st63{fill:#bb7342}.st64{fill:#7b4832}.st65{fill:#885138}.st68{fill:#fff}.st69{fill:#f4a09c}.st70{fill:#f7b9ba}.st74,.st75,.st77{display:inline;fill:#efbac5}.st75,.st77{fill:#d60e32}.st77{fill:#931827}.st79,.st80,.st81{display:inline;fill:#11bae6}.st80,.st81{fill:#def1f8}.st81{fill:#c0e4f1}.st83{fill:#ffca00}.st84{fill:#ffac12}.st85{fill:#383838}.st86{fill:#ef3f0f}.st89{fill:#63c4ee}.st90{fill:#2daad6}</style>
    <path d="M923.1 485s.5-.2 1.4-.6v-.6c-.4.4-.9.9-1.4 1.2z" style="fill:#fddb00" />
    <path class="st83" d="M467.3 354.5c0 19.8-94 35.8-209.9 35.8s-209.9-16-209.9-35.8c0-19.8 94-35.8 209.9-35.8s209.9 16 209.9 35.8z" />
    <path class="st83" d="M257.9 389.8c0 9.9-38.2 17.9-85.2 17.9s-85.2-8-85.2-17.9c0-9.9 38.2-17.9 85.2-17.9s85.2 8 85.2 17.9z" />
    <path class="st84" d="M446.6 349.5c0 16-75.8 28.9-169.3 28.9-93.5 0-169.3-12.9-169.3-28.9 0-16 75.8-28.9 169.3-28.9 93.5 0 169.3 13 169.3 28.9z" />
    <path class="st85" d="m198.7 330.6-46.9-179.7-6.4-1.1 48.4 182.1c.4 1.4 1.9 2.2 3.2 1.8 1.2-.4 2-1.8 1.7-3.1z" />
    <path class="st84" d="M31.9 203.8s19.5 4.7 53.8 2.5c12.6-.8 27.2-2.6 43.5-5.9 9.8-2 20.2-4.5 31.1-7.6 7.6-2.2 15.6-4.7 23.8-7.6 13.1-4.6 26.8-10.2 41.2-16.8 13.6-6.3 27.8-13.6 42.5-22 0 0-71.2-63-139.1-47.7-.3.1-.5.1-.8.2-1.6.4-3.3.8-4.9 1.3-69.6 20.3-91.1 103.6-91.1 103.6z" />
    <path class="st86" d="M128.7 98.6c27.7 39.8 44.9 67.7 55.4 86.5 13.1-4.6 26.8-10.2 41.2-16.8 0 0-39.3-55.4-96.6-69.7z" />
    <path class="st83" d="M31.9 203.8s19.5 4.7 53.8 2.5c12.6-.8 27.2-2.6 43.5-5.9 9.8-2 20.2-4.5 31.1-7.6l-31.7-94.2c-.3.1-.5.1-.8.2-1.6.4-3.3.8-4.9 1.3-69.5 20.4-91 103.7-91 103.7z" />
    <path d="M85.7 206.3c12.6-.8 27.2-2.6 43.5-5.9-1.4-21.5-2.1-53.9-.5-101.8v-.8c-.3.3-.6.6-.9 1-34.8 38.1-41.1 94.8-42.1 107.5z" style="fill:#ff642e" />
    <path class="st86" d="M440.6 206.4s-36 90.1-73.9 116.8c-6.5 4.6-14.6 8-23.5 10.5-42.7 12.1-99.5 2.4-99.5 2.4s17.2-1.8 42.6-16c29.5-16.5 63.9-48.6 75.2-110.3 71.7-3.4 79.1-3.4 79.1-3.4z" />
    <path class="st85" d="m361.5 209.8 79.1-3.4v-9.1l-79.1 6.2z" />
    <path class="st85" d="M247.9 351.8c-.5 0-1-.2-1.4-.5-1-.8-1.1-2.2-.3-3.1L368.8 197c.8-1 2.2-1.1 3.1-.3 1 .8 1.1 2.2.3 3.1L249.7 350.9c-.5.6-1.1.9-1.8.9zM430.9 339.6h-.3l-139.7-17.2c-1.2-.2-2.1-1.3-1.9-2.5.2-1.2 1.3-2.1 2.5-1.9l139.7 17.2c1.2.2 2.1 1.3 1.9 2.5-.1 1.1-1.1 1.9-2.2 1.9z" />
    <path class="st85" d="M417.4 337.9c-1 0-1.9-.7-2.2-1.7L395 258.4c-.3-1.2.4-2.4 1.6-2.7 1.2-.3 2.4.4 2.7 1.6l20.3 77.9c.3 1.2-.4 2.4-1.6 2.7h-.6z" />
    <path d="M343.2 333.7c-28.7 8.1-65.8 6.7-87.1 5-10.6-.9-20.7-5-28.9-11.9L218 319l68.3 1.1 4.8.1s3.2 8.5 48.7 13.2c1.3.1 2.4.2 3.4.3z" style="fill:#cc2a05" />
    <path class="st85" d="m218 319 73.2 1.2v-3.9l-73.2-1.1zM314.9 361.5c-.5 0-1-.2-1.4-.5-1-.8-1.1-2.2-.3-3.1l131.3-162c.8-1 2.2-1.1 3.1-.3 1 .8 1.1 2.2.3 3.1l-131.3 162c-.4.6-1.1.8-1.7.8z" />
    <path class="st83" d="M326.1 135.5c-2.3.5-4.6.8-6.8.8-1.8 0-3.6-.2-5.3-.5-11.4-2.1-21.1-10.7-23.9-22.7-3.8-16.1 6.2-32.3 22.4-36.1 2.3-.5 4.6-.8 6.8-.8 1.9 0 3.9.2 5.7.5 11.2 2.2 20.7 10.7 23.5 22.6 3.7 16.2-6.3 32.4-22.4 36.2z" />
    <path class="st84" d="M326.1 135.5c-2.3.5-4.6.8-6.8.8v-60c1.9 0 3.9.2 5.7.5 11.2 2.2 20.7 10.7 23.5 22.6 3.7 16.1-6.3 32.3-22.4 36.1z" />
    <path class="st89" d="M426.1 138.7c-1.7-3.1-4.4-5.5-7.6-7.1-3-1.4-8.2-.8-10.6-2.6-.6-.5-1.1-1.2-1.5-1.9-2.2-3.2-5.9-5.5-9.8-5.8-2-.2-8.9 2.1-10.1.5-5.3-6.9-13.5-11.5-22.1-12.7-11.6-1.5-24.1 2.7-28.5 14.2-1.2 0-2.3 0-3.3.2-3.6.4-7 1.5-9.9 3.6-5.5 4-9.1 10.7-8.8 17.6h112.9c.6-2 .3-4.1-.7-6z" />
    <path class="st90" d="M404.6 154.6c.1-2.9-1.1-5.4-3-7.8-4-5-9-8.9-15.6-9.4-2.1-.2-4.3.1-6.3.7-.3-.4-.7-.8-1-1.1-4-3.9-10-5.6-15.5-4.1-3.8 1.1-6.9 3.6-8.9 6.9-8.5-1.3-14.3 5.3-17.1 12.7-.3.7-.4 1.4-.5 2.2h67.9z" />
    <path class="st89" d="M187.1 350.6c0 11.9-4.3 22.9-11.5 31.3-8.8 10.4-22 17-36.8 17h-1.5c-6.6-.2-12.9-1.7-18.6-4.3-10.2-4.7-18.5-12.7-23.4-22.8-3.1-6.4-4.9-13.6-4.9-21.1 0-1.2 0-2.4.1-3.5.2-2.3.5-4.6 1-6.9 1.5-6.8 4.4-13 8.4-18.4 8.8-11.9 22.9-19.5 38.8-19.5.9 0 1.7 0 2.6.1 17.6.9 32.8 11.3 40.4 26.2 3.5 6.5 5.4 14 5.4 21.9z" />
    <path class="st90" d="m181.8 328.6-38.8 7.2-8.8-6.7 7.1-26.8c17.7 1 32.9 11.4 40.5 26.3zM175.6 381.9c-8.8 10.4-22 17-36.8 17h-1.5c-6.6-.2-12.9-1.7-18.6-4.3l10.1-43.9 13.3-6.3 33.5 37.5zM125.2 331.5l-.1 11.1-34.5 4.5c.2-2.3.5-4.6 1-6.9 1.5-6.8 4.4-13 8.4-18.4l25.2 9.7z" />
    <path class="st68" d="M144.9 338.5c0 7.2-5.8 13-13 13s-13-5.8-13-13 5.8-13 13-13 13 5.8 13 13z" />
</svg>