<svg width="256" height="256" viewBox="-2.4 -2.4 28.8 28.8" fill="none" xmlns="http://www.w3.org/2000/svg"><rect x="-2.4" y="-2.4" width="28.8" height="28.8" rx="0" fill="#1E1E1E" stroke-width="0"/><path d="M21 9a2 2 0 0 0-2-2h-2.5a1 1 0 0 1-1-1 1 1 0 0 0-1-1H10m11 8v3M3 3l18 18m-9.34-5.02a3.001 3.001 0 0 1-2.64-2.626M3 9v8a2 2 0 0 0 2 2m9 0H9" stroke="#fff" stroke-width="1.5" stroke-linecap="round" stroke-linejoin="round"/><path d="M21 9a2 2 0 0 0-2-2h-2.5a1 1 0 0 1-1-1 1 1 0 0 0-1-1H10m11 8v3M3 3l18 18m-9.34-5.02a3.001 3.001 0 0 1-2.64-2.626M3 9v8a2 2 0 0 0 2 2m9 0H9" stroke="#fff" stroke-width="1.5" stroke-linecap="round" stroke-linejoin="round"/></svg>