<svg version="1.2" baseProfile="tiny" xmlns="http://www.w3.org/2000/svg" width="240.184" height="143.663" overflow="visible" xml:space="preserve"><path fill="#FBBC05" d="M64.033.1C28.669.1 0 28.768 0 64.133c0 31.199 22.45 57.368 53.302 63.399 4.323.845 3.017 2.662 2.69 4.894-.748 5.114.194 11.886 10.245 11.187 30.722-2.137 61.829-45.518 61.829-79.48C128.066 28.768 99.398.1 64.033.1zm-.104 95.557c-17.724 0-32.091-14.368-32.091-32.091s14.367-32.091 32.091-32.091S96.02 45.843 96.02 63.566 81.653 95.657 63.929 95.657z"/><path fill="#4285F4" d="M149.139 125.163a7.97 7.97 0 0 0 3.47.789 7.999 7.999 0 0 0 6.798-3.776l.568-.935a111.185 111.185 0 0 0 10.164-22.211l.339-1.04a7.963 7.963 0 0 1 2.015-3.381 8.004 8.004 0 0 1 11.32 0l31.375 31.145a8.004 8.004 0 0 0 11.32 0l11.333-11.377a8.004 8.004 0 0 0 0-11.32L209.942 75.19c-6.252-6.252-6.252-16.389 0-22.641L237.527 25a8.004 8.004 0 0 0 0-11.32L226.191 2.344a8.004 8.004 0 0 0-11.32 0l-31.059 31a8.004 8.004 0 0 1-13.286-3.223l-.289-.906a111.099 111.099 0 0 0-10.083-22.209l-.661-1.089a8 8 0 0 0-6.845-3.854 7.989 7.989 0 0 0-3.317.717l-15.106 6.846a8.006 8.006 0 0 0-4.749 7.315 7.97 7.97 0 0 0 1.233 4.271l.681 1.069c7.511 12.109 11.848 26.394 11.848 41.691 0 15.314-4.346 29.612-11.871 41.73l-.779 1.196a8.004 8.004 0 0 0 3.471 11.404l15.08 6.861z"/></svg>