<svg version="1.2" baseProfile="tiny" xmlns="http://www.w3.org/2000/svg" width="225.037" height="162.461" overflow="visible" xml:space="preserve"><path fill="#FFF" d="M70.569.073c-25.915 0-46.923 21.008-46.923 46.923 0 22.862 16.451 42.039 39.059 46.458 3.168.619 2.211 1.951 1.971 3.587-.548 3.747.142 8.71 7.507 8.198 22.513-1.566 45.308-33.355 45.308-58.242C117.492 21.081 96.483.073 70.569.073zm-.077 70.024c-12.988 0-23.516-10.529-23.516-23.516 0-12.987 10.528-23.516 23.516-23.516 12.988 0 23.516 10.529 23.516 23.516 0 12.987-10.528 23.516-23.516 23.516zm51.392 16.594a5.865 5.865 0 0 1-2.544-8.357l.571-.876c5.515-8.88 8.699-19.357 8.699-30.579 0-11.21-3.178-21.678-8.682-30.551l-.499-.783a5.866 5.866 0 0 1 2.576-8.49l11.069-5.017a5.842 5.842 0 0 1 2.431-.526 5.86 5.86 0 0 1 5.016 2.824l.484.798a81.402 81.402 0 0 1 7.388 16.274l.212.664a5.865 5.865 0 0 0 9.736 2.362l22.76-22.717a5.865 5.865 0 0 1 8.295 0l8.306 8.306a5.865 5.865 0 0 1 0 8.295l-20.214 20.188c-4.581 4.581-4.582 12.009 0 16.591l20.444 20.422a5.865 5.865 0 0 1 0 8.295l-8.305 8.337a5.865 5.865 0 0 1-8.295 0l-22.991-22.823a5.865 5.865 0 0 0-9.771 2.478l-.249.762a81.498 81.498 0 0 1-7.448 16.276l-.416.685a5.86 5.86 0 0 1-4.981 2.767 5.851 5.851 0 0 1-2.543-.578l-11.049-5.027zm-105.252 75.77c-5.477 0-9.62-1.427-12.424-4.282C1.402 155.323 0 151.058 0 145.381s1.402-9.943 4.208-12.798c2.805-2.855 6.947-4.283 12.424-4.283s9.618 1.428 12.424 4.283c2.805 2.855 4.208 7.121 4.208 12.798s-1.403 9.943-4.208 12.798c-2.805 2.855-6.946 4.282-12.424 4.282zm0-5.826c3.054 0 5.403-.888 7.046-2.664 1.643-1.776 2.465-4.639 2.465-8.59 0-3.951-.814-6.814-2.44-8.59-1.627-1.775-3.984-2.664-7.071-2.664-3.055 0-5.403.889-7.046 2.664-1.644 1.776-2.465 4.639-2.465 8.59 0 3.951.813 6.814 2.44 8.59 1.626 1.776 3.984 2.664 7.071 2.664zm58.397 5.278c-4.017 0-7.046-1.021-9.088-3.063-2.041-2.041-3.063-5.071-3.063-9.088s1.021-7.046 3.063-9.088c2.041-2.041 5.07-3.063 9.088-3.063h9.013v5.03h-8.167c-2.091 0-3.603.373-4.532 1.12-.929.747-1.478 1.867-1.643 3.362h14.142v4.979H69.701c.066 1.461.564 2.615 1.494 3.461.929.847 2.49 1.27 4.681 1.27h8.366v5.079h-9.213zm57.998 0-9.411-11.802v11.802h-6.673v-33.065h6.673v18.674l8.714-9.91h7.768l-9.959 10.856 10.856 13.445h-7.968zm46.765 0v-5.03h12.599c1.56 0 2.341-.779 2.341-2.34 0-1.527-.781-2.291-2.341-2.291h-5.029c-2.358 0-4.183-.631-5.478-1.892s-1.942-3.071-1.942-5.428c0-2.357.638-4.166 1.917-5.427 1.278-1.261 3.096-1.893 5.453-1.893h12.897v5.08h-11.105c-1.593 0-2.39.747-2.39 2.241 0 1.528.797 2.291 2.39 2.291h5.03c2.391 0 4.215.631 5.477 1.892 1.261 1.262 1.892 3.071 1.892 5.428 0 2.39-.631 4.216-1.892 5.477-1.262 1.262-3.087 1.892-5.477 1.892h-14.342zm23.534 0v-5.03h12.599c1.56 0 2.341-.779 2.341-2.34 0-1.527-.781-2.291-2.341-2.291h-5.029c-2.358 0-4.183-.631-5.478-1.892s-1.942-3.071-1.942-5.428c0-2.357.638-4.166 1.917-5.427 1.278-1.261 3.096-1.893 5.453-1.893h12.897v5.08h-11.105c-1.593 0-2.39.747-2.39 2.241 0 1.528.797 2.291 2.39 2.291h5.03c2.391 0 4.215.631 5.477 1.892 1.261 1.262 1.892 3.071 1.892 5.428 0 2.39-.631 4.216-1.892 5.477-1.262 1.262-3.087 1.892-5.477 1.892h-14.342zm-36.433-14.241v14.242h-6.673v-14.292c0-1.693-.373-2.913-1.12-3.66-.747-.747-1.967-1.12-3.66-1.12h-5.527v19.072h-6.673V140.62a3.007 3.007 0 0 1 3.007-3.007h10.587c3.518 0 6.075.797 7.669 2.391 1.594 1.592 2.39 4.149 2.39 7.668zm-61.832-18.824v8.764h-5.777c-4.017 0-7.046 1.021-9.088 3.062-2.041 2.042-3.063 5.072-3.063 9.088 0 4.017 1.021 7.046 3.063 9.088 2.041 2.041 5.07 3.063 9.088 3.063h9.443a3.007 3.007 0 0 0 3.007-3.007v-30.058h-6.673zm0 27.986h-3.984c-2.49 0-4.3-.556-5.428-1.669-1.129-1.112-1.693-2.913-1.693-5.403s.564-4.299 1.693-5.428c1.128-1.128 2.938-1.693 5.428-1.693h3.984v14.193zm-45.268-19.222v21.294a3.007 3.007 0 0 1-3.007 3.007H46.447c-3.519 0-6.084-.797-7.694-2.39-1.611-1.594-2.415-4.15-2.415-7.669v-14.242h6.673v14.292c0 1.693.373 2.913 1.12 3.66.747.747 1.967 1.12 3.66 1.12h5.328v-19.072h6.674zm110.196 24.301v-24.301h6.673v24.301h-6.673zm3.336-33.072a3.337 3.337 0 1 0 .001 6.673 3.337 3.337 0 0 0-.001-6.673z"/></svg>