<svg version="1.2" baseProfile="tiny" xmlns="http://www.w3.org/2000/svg" width="272.222" height="41.102" overflow="visible" xml:space="preserve"><path fill="#FFF" d="M90.037 3.12a2.817 2.817 0 1 1 5.633 0 2.817 2.817 0 0 1-5.633 0zm70.529 27.286h5.755V1.114h-5.755v29.292zm-35.001-18.092c-2.449-1.678-5.351-2.494-8.706-2.494h-1.196l6.121-8.661h-7.056l-9.269 13.837h10.474c3.31 0 5.94 1.134 7.844 3.446 1.633 1.995 2.194 3.984 2.426 6.795H94.33c.725-.862 1.088-2.584 1.088-5.26V9.82H89.65v10.43c0 1.587-.181 2.766-.544 3.446-.544 1.043-1.542 1.541-3.038 1.541H74.205c.771-.862 1.134-2.584 1.134-5.26V9.82h-5.787v10.43c0 1.587-.181 2.766-.544 3.446-.544 1.043-1.587 1.541-3.083 1.541H53.28c.771-1.632 1.134-3.491 1.134-5.623V9.82h-5.785v10.43c0 3.31-1.269 4.987-3.854 4.987h-4.281c.68-.725 1.043-2.584 1.043-5.532V9.82h-5.815v10.384c0 3.355-1.27 5.033-3.854 5.033h-3.435c.136-.907.226-1.859.226-2.811V9.82h-5.824v10.154c0 4.574-.174 6.548-1.522 8.424-1.741 2.424-4.31 3.856-7.166 3.856-2.902 0-5.075-1.389-6.754-3.856-1.277-1.876-1.704-3.617-1.704-7.727v-5.71H0v7.465c0 4.398 1.451 8.071 4.308 11.064 2.766 2.948 6.122 4.444 10.067 4.444 3.99 0 7.345-1.542 10.112-4.625a14.47 14.47 0 0 0 2.131-2.902H129.723a2.635 2.635 0 0 0 2.282-2.149v-1.025c-.002-7.12-2.133-12.062-6.44-14.919zm23.24-1.769c-1.179-.408-2.086-.59-2.721-.635-.635-.046-2.222-.091-4.716-.091v5.487c1.633 0 3.174.091 4.58.408 4.58.997 6.321 3.583 6.321 9.523h-15.842v5.169h18.892a2.647 2.647 0 0 0 2.647-2.647v-2.522c-.047-7.754-3.085-12.651-9.161-14.692zm40.981 9.756v5.156c0 3.301-.562 7.787-2.806 9.872-1.924 1.788-4.47 2.765-7.799 2.765V33.86c3.356 0 5.33-1.486 5.167-4.435-.386.199-.24.13-.669.285-1.294.468-2.751.702-4.375.702-3.301 0-5.854-.88-7.655-2.641-1.802-1.761-2.703-4.251-2.703-7.469 0-3.301.935-5.874 2.806-7.717s4.47-2.765 7.799-2.765c3.246 0 5.763.915 7.552 2.744 1.788 1.829 2.683 4.408 2.683 7.737zm-5.523-.095c0-1.939-.422-3.406-1.265-4.4-.844-.994-2.084-1.491-3.723-1.491-1.59 0-2.789.503-3.596 1.51-.807 1.006-1.21 2.479-1.21 4.418 0 1.867.416 3.279 1.247 4.237.831.958 2.042 1.437 3.632 1.437 3.276-.001 4.915-1.904 4.915-5.711zM72.489 35.041a2.817 2.817 0 1 0 0 5.633 2.817 2.817 0 0 0 0-5.633zm-7.894 0a2.817 2.817 0 1 0 0 5.633 2.817 2.817 0 0 0 0-5.633z"/><path fill="#FBBC05" d="M221.825.029c-10.118 0-18.32 8.202-18.32 18.32 0 8.926 6.423 16.413 15.25 18.138 1.237.242.863.762.77 1.4-.214 1.463.056 3.401 2.931 3.201 8.79-.611 17.689-13.023 17.689-22.739 0-10.118-8.202-18.32-18.32-18.32zm-.03 27.339a9.181 9.181 0 1 1 0-18.362 9.181 9.181 0 0 1 0 18.362z"/><path fill="#4285F4" d="M246.174 35.809a2.29 2.29 0 0 0 2.938-.854l.163-.267a31.836 31.836 0 0 0 2.908-6.354l.097-.297a2.291 2.291 0 0 1 3.815-.967l8.976 8.911a2.291 2.291 0 0 0 3.239 0l3.242-3.255a2.291 2.291 0 0 0 0-3.239l-7.982-7.973a4.58 4.58 0 0 1 0-6.478l7.892-7.882a2.291 2.291 0 0 0 0-3.239L268.219.672a2.291 2.291 0 0 0-3.239 0l-8.886 8.869a2.291 2.291 0 0 1-3.802-.922l-.083-.259a31.782 31.782 0 0 0-2.885-6.354l-.189-.311a2.289 2.289 0 0 0-2.907-.898l-4.322 1.959a2.29 2.29 0 0 0-1.006 3.315l.195.306a22.555 22.555 0 0 1 3.39 11.928c0 4.381-1.243 8.472-3.396 11.939l-.223.342a2.29 2.29 0 0 0 .993 3.263l4.315 1.96z"/></svg>