<?xml version="1.0" encoding="utf-8"?>
<!-- Generator: Adobe Illustrator 17.0.0, SVG Export Plug-In . SVG Version: 6.00 Build 0)  -->
<svg version="1.2" baseProfile="tiny" id="Layer_1" xmlns="http://www.w3.org/2000/svg" xmlns:xlink="http://www.w3.org/1999/xlink"
	 x="0px" y="0px" width="272.388px" height="41.102px" viewBox="0 0 272.388 41.102" overflow="visible" xml:space="preserve">
<g>
	<path fill="#474E5E" d="M96.43,32.618c-4.625,0-8.122-1.205-10.49-3.615c-2.369-2.411-3.553-6.012-3.553-10.805
		s1.184-8.395,3.553-10.805c2.368-2.41,5.865-3.616,10.49-3.616s8.121,1.206,10.49,3.616c2.368,2.411,3.553,6.012,3.553,10.805
		s-1.185,8.395-3.553,10.805C104.551,31.413,101.054,32.618,96.43,32.618z M96.43,27.699c2.578,0,4.561-0.75,5.949-2.249
		c1.387-1.5,2.081-3.917,2.081-7.253c0-3.335-0.687-5.753-2.06-7.253c-1.374-1.499-3.363-2.249-5.97-2.249
		c-2.579,0-4.562,0.75-5.949,2.249c-1.388,1.5-2.081,3.917-2.081,7.253c0,3.336,0.687,5.753,2.06,7.253
		C91.833,26.949,93.823,27.699,96.43,27.699z M145.735,32.156c-3.392,0-5.949-0.862-7.673-2.586
		c-1.724-1.724-2.586-4.281-2.586-7.673s0.862-5.949,2.586-7.673c1.724-1.724,4.281-2.586,7.673-2.586h7.61v4.247h-6.895
		c-1.766,0-3.042,0.315-3.826,0.946c-0.785,0.631-1.248,1.577-1.387,2.838h11.941v4.204h-11.941
		c0.056,1.234,0.476,2.208,1.261,2.922c0.785,0.715,2.102,1.072,3.952,1.072h7.063v4.288H145.735z M194.703,32.156l-7.946-9.964
		v9.964h-5.634V4.238h5.634v15.767l7.357-8.367h6.559l-8.409,9.166l9.165,11.352H194.703z M234.188,32.156v-4.247h10.637
		c1.317,0,1.976-0.658,1.976-1.976c0-1.289-0.659-1.934-1.976-1.934h-4.246c-1.991,0-3.532-0.533-4.625-1.598
		c-1.093-1.065-1.639-2.593-1.639-4.583c0-1.99,0.539-3.517,1.618-4.582c1.079-1.065,2.614-1.598,4.604-1.598h10.889v4.289h-9.376
		c-1.345,0-2.018,0.631-2.018,1.892c0,1.29,0.673,1.934,2.018,1.934h4.247c2.018,0,3.559,0.533,4.625,1.598
		c1.065,1.066,1.598,2.593,1.598,4.583c0,2.018-0.533,3.56-1.598,4.625c-1.066,1.066-2.606,1.598-4.625,1.598H234.188z
		 M254.057,32.156v-4.247h10.637c1.317,0,1.976-0.658,1.976-1.976c0-1.289-0.659-1.934-1.976-1.934h-4.246
		c-1.991,0-3.532-0.533-4.625-1.598c-1.093-1.065-1.639-2.593-1.639-4.583c0-1.99,0.539-3.517,1.618-4.582
		c1.079-1.065,2.614-1.598,4.604-1.598h10.889v4.289h-9.376c-1.345,0-2.018,0.631-2.018,1.892c0,1.29,0.673,1.934,2.018,1.934h4.247
		c2.018,0,3.559,0.533,4.625,1.598c1.065,1.066,1.598,2.593,1.598,4.583c0,2.018-0.533,3.56-1.598,4.625
		c-1.066,1.066-2.606,1.598-4.625,1.598H254.057z M221.279,13.656c-1.346-1.346-3.504-2.018-6.475-2.018h-8.939
		c-1.402,0-2.539,1.137-2.539,2.539v17.979h5.634V16.053h4.667c1.429,0,2.459,0.315,3.09,0.946c0.631,0.631,0.946,1.661,0.946,3.09
		v12.067h5.634V20.131C223.297,17.161,222.625,15.002,221.279,13.656z M171.091,4.238v7.4h-4.877c-3.392,0-5.949,0.862-7.673,2.586
		c-1.724,1.724-2.586,4.282-2.586,7.673c0,3.391,0.862,5.949,2.586,7.673c1.724,1.724,4.281,2.586,7.673,2.586h7.972
		c1.402,0,2.539-1.137,2.539-2.539V4.238H171.091z M171.091,27.867h-3.363c-2.102,0-3.63-0.469-4.583-1.409
		c-0.953-0.939-1.429-2.459-1.429-4.561s0.476-3.63,1.429-4.583c0.953-0.952,2.481-1.429,4.583-1.429h3.363V27.867z M127.237,11.638
		v16.103h-4.499c-1.429,0-2.46-0.315-3.09-0.946s-0.946-1.66-0.946-3.09V11.638h-5.634v12.025c0,2.971,0.679,5.129,2.039,6.475
		c1.359,1.345,3.525,2.018,6.496,2.018h8.729c1.402,0,2.539-1.137,2.539-2.539V11.638H127.237z M225.911,32.156V11.638h5.634v20.518
		H225.911z M228.727,4.232c-1.556,0-2.817,1.261-2.817,2.817s1.261,2.817,2.817,2.817c1.556,0,2.817-1.261,2.817-2.817
		S230.283,4.232,228.727,4.232z"/>
	<g>
		<path fill="#FBBC05" d="M18.32,0.029C8.202,0.029,0,8.231,0,18.348c0,8.926,6.423,16.413,15.25,18.138
			c1.237,0.242,0.863,0.762,0.77,1.4c-0.214,1.463,0.056,3.401,2.931,3.201c8.79-0.611,17.689-13.023,17.689-22.739
			C36.64,8.231,28.438,0.029,18.32,0.029z M18.29,27.368c-5.071,0-9.181-4.111-9.181-9.181c0-5.071,4.111-9.181,9.181-9.181
			c5.071,0,9.181,4.111,9.181,9.181C27.472,23.257,23.361,27.368,18.29,27.368z"/>
		<path fill="#4285F4" d="M42.669,35.809c0.3,0.145,0.637,0.226,0.993,0.226c0.821,0,1.541-0.432,1.945-1.08l0.163-0.267
			c1.189-1.988,2.169-4.117,2.908-6.354l0.097-0.297c0.105-0.354,0.297-0.688,0.576-0.967c0.894-0.894,2.344-0.894,3.239,0
			l8.976,8.911c0.894,0.894,2.344,0.894,3.239,0l3.242-3.255c0.894-0.894,0.894-2.344,0-3.239l-7.982-7.973
			c-1.789-1.789-1.789-4.689,0-6.478l7.892-7.882c0.894-0.894,0.894-2.344,0-3.239l-3.243-3.243c-0.894-0.894-2.344-0.894-3.239,0
			L52.589,9.54c-0.894,0.894-2.344,0.894-3.239,0c-0.268-0.268-0.455-0.585-0.563-0.922l-0.083-0.259
			c-0.732-2.237-1.703-4.365-2.885-6.354l-0.189-0.311C45.23,1.032,44.503,0.59,43.673,0.59c-0.339,0-0.66,0.073-0.949,0.205
			l-4.322,1.959c-0.801,0.357-1.359,1.16-1.359,2.093c0,0.449,0.129,0.868,0.353,1.222l0.195,0.306
			c2.149,3.465,3.39,7.551,3.39,11.928c0,4.381-1.243,8.472-3.396,11.939l-0.223,0.342c-0.21,0.346-0.331,0.752-0.331,1.186
			c0,0.92,0.542,1.712,1.324,2.077L42.669,35.809z"/>
	</g>
</g>
</svg>
