<svg version="1.2" baseProfile="tiny" xmlns="http://www.w3.org/2000/svg" width="503.428" height="76.42" overflow="visible" xml:space="preserve"><path fill="#FBBC05" d="M37.208 76.42c-12.254 0-21.52-3.192-27.794-9.58C3.136 60.453 0 50.91 0 38.211s3.136-22.243 9.413-28.63C15.688 3.195 24.954 0 37.208 0s21.517 3.195 27.794 9.581c6.274 6.387 9.413 15.931 9.413 28.63s-3.139 22.243-9.413 28.63c-6.277 6.387-15.541 9.579-27.794 9.579zm0-13.033c6.832 0 12.086-1.987 15.763-5.96 3.676-3.973 5.514-10.377 5.514-19.216 0-8.838-1.82-15.243-5.458-19.216-3.641-3.972-8.912-5.96-15.819-5.96-6.834 0-12.087 1.988-15.763 5.96-3.677 3.973-5.514 10.379-5.514 19.216 0 8.839 1.819 15.243 5.458 19.216 3.638 3.974 8.912 5.96 15.819 5.96zm130.639 11.808c-8.987 0-15.763-2.284-20.33-6.851-4.567-4.567-6.851-11.344-6.851-20.33s2.284-15.763 6.851-20.331c4.567-4.567 11.343-6.851 20.33-6.851h20.164v11.252h-18.269c-4.679 0-8.06.835-10.138 2.506-2.079 1.671-3.305 4.177-3.676 7.52h31.638v11.139h-31.638c.148 3.269 1.262 5.849 3.342 7.742 2.079 1.894 5.57 2.842 10.472 2.842h18.715v11.362h-20.61zm67.184-73.97v19.606h-12.923c-8.987 0-15.763 2.284-20.33 6.851-4.567 4.568-6.851 11.346-6.851 20.331 0 8.986 2.284 15.763 6.851 20.33 4.567 4.567 11.343 6.851 20.33 6.851h21.124a6.727 6.727 0 0 0 6.727-6.727V1.225h-14.928zm0 62.608h-8.912c-5.57 0-9.619-1.243-12.143-3.733-2.526-2.487-3.787-6.516-3.787-12.086s1.262-9.617 3.787-12.143c2.525-2.523 6.573-3.787 12.143-3.787h8.912v31.749zM118.835 20.831v42.666h-11.92c-3.787 0-6.517-.835-8.188-2.506-1.671-1.671-2.506-4.399-2.506-8.187V20.831H81.293v31.861c0 7.872 1.799 13.591 5.402 17.156 3.602 3.564 9.339 5.347 17.212 5.347h23.128a6.727 6.727 0 0 0 6.727-6.727V20.831h-14.927z"/><path fill="#4285F4" d="M297.594 75.195 276.54 48.794v26.402h-14.928V1.225h14.928v41.776l19.494-22.17h17.378l-22.28 24.286 24.285 30.077h-17.823zm104.618 0V63.943h28.184c3.49 0 5.236-1.744 5.236-5.235 0-3.416-1.746-5.124-5.236-5.124h-11.25c-5.275 0-9.357-1.411-12.255-4.233-2.896-2.822-4.343-6.869-4.343-12.143 0-5.272 1.428-9.32 4.288-12.142 2.858-2.822 6.925-4.234 12.199-4.234h28.852v11.364h-24.842c-3.564 0-5.347 1.671-5.347 5.013 0 3.417 1.783 5.124 5.347 5.124h11.252c5.348 0 9.43 1.412 12.254 4.233 2.822 2.823 4.233 6.871 4.233 12.143 0 5.347-1.411 9.432-4.233 12.254-2.823 2.823-6.906 4.233-12.254 4.233h-32.085zm52.646 0V63.943h28.184c3.49 0 5.236-1.744 5.236-5.235 0-3.416-1.746-5.124-5.236-5.124h-11.25c-5.275 0-9.357-1.411-12.255-4.233-2.896-2.822-4.343-6.869-4.343-12.143 0-5.272 1.428-9.32 4.288-12.142 2.858-2.822 6.925-4.234 12.199-4.234h28.852v11.364H475.69c-3.564 0-5.347 1.671-5.347 5.013 0 3.417 1.783 5.124 5.347 5.124h11.252c5.348 0 9.43 1.412 12.254 4.233 2.822 2.823 4.233 6.871 4.233 12.143 0 5.347-1.411 9.432-4.233 12.254-2.823 2.823-6.906 4.233-12.254 4.233h-32.084zm-86.849-49.016c-3.565-3.565-9.285-5.348-17.156-5.348h-23.685a6.727 6.727 0 0 0-6.727 6.727v47.637h14.928V32.529h12.365c3.787 0 6.516.835 8.187 2.506 1.671 1.671 2.506 4.401 2.506 8.188v31.972h14.927v-31.86c.001-7.871-1.78-13.59-5.345-17.156zm12.272 49.016V20.831h14.928v54.364h-14.928zm7.463-73.986c-4.122 0-7.463 3.341-7.463 7.463s3.341 7.463 7.463 7.463 7.463-3.341 7.463-7.463-3.341-7.463-7.463-7.463z"/></svg>