<svg xmlns="http://www.w3.org/2000/svg" width="391.277" height="112" xml:space="preserve"><path fill="#474E5E" d="M218.445 27.773h10.527v6h-9.551c-2.41 0-4.151.348-5.221 1.209-1.071.861-1.702 1.791-1.893 3.791h16.666v6h-16.666c.076 2 .65 2.787 1.721 3.762 1.071.976 2.869 1.238 5.393 1.238h9.551v6h-10.527c-4.629 0-8.118-1.099-10.47-3.451-2.352-2.352-3.529-5.765-3.529-10.393s1.176-8.171 3.529-10.523c2.352-2.352 5.841-3.633 10.47-3.633zm-25.473 22h-5.908c-1.951 0-3.148-.339-4.009-1.199-.861-.861-1.083-2.174-1.083-4.125V27.773h-8v16.618c0 4.055.875 6.896 2.73 8.732 1.855 1.835 4.758 2.65 8.812 2.65h11.912c1.913 0 3.546-1.344 3.546-3.257V27.773h-8v22zm-27.495-27.585c3.231 3.29 4.848 8.205 4.848 14.745 0 6.54-1.617 11.455-4.848 14.745-3.233 3.29-8.004 4.934-14.315 4.934s-11.083-1.644-14.315-4.934c-3.233-3.29-4.848-8.205-4.848-14.745 0-6.54 1.615-11.455 4.848-14.745 3.231-3.289 8.004-4.934 14.315-4.934s11.083 1.645 14.315 4.934zm-3.356 14.745c0-4.552-.938-7.851-2.811-9.897-1.875-2.046-4.59-3.069-8.147-3.069-3.52 0-6.225 1.024-8.118 3.069-1.894 2.046-2.84 5.345-2.84 9.897 0 4.552.937 7.851 2.811 9.897 1.874 2.046 4.59 3.069 8.147 3.069 3.518 0 6.224-1.023 8.118-3.069 1.893-2.047 2.84-5.345 2.84-9.897zm90.851-19.16h8v34.743c0 1.913-1.789 3.257-3.702 3.257h-10.879c-4.629 0-8.118-1.099-10.47-3.451-2.352-2.352-3.529-5.765-3.529-10.393s1.176-8.171 3.529-10.523c2.352-2.352 5.842-3.633 10.47-3.633h6.581v-10zm0 16h-4.515c-2.869 0-4.954.609-6.254 1.908-1.301 1.301-1.951 3.343-1.951 6.212s.65 4.855 1.951 6.136c1.3 1.282 3.385 1.745 6.254 1.745h4.515V33.773zm102.7 5h-5.795c-1.836 0-2.754-.769-2.754-2.529 0-1.721.918-2.471 2.754-2.471h13.095v-6h-15.16c-2.716 0-4.811.832-6.283 2.285-1.473 1.453-2.208 3.59-2.208 6.306s.745 4.788 2.237 6.241c1.492 1.453 3.595 2.168 6.312 2.168h5.794c1.797 0 2.697.712 2.697 2.472 0 1.798-.899 2.528-2.697 2.528h-14.692v6h16.7c2.754 0 4.857-.622 6.311-2.076 1.453-1.453 2.18-3.505 2.18-6.259 0-2.715-.727-4.915-2.18-6.369-1.455-1.454-3.557-2.296-6.311-2.296zm33.424 2.321c-1.454-1.453-3.557-2.321-6.311-2.321h-5.795c-1.835 0-2.754-.769-2.754-2.529 0-1.721.918-2.471 2.754-2.471h12.981v-6h-15.046c-2.716 0-4.811.832-6.283 2.285-1.473 1.453-2.208 3.59-2.208 6.306s.745 4.788 2.237 6.241c1.492 1.453 3.595 2.168 6.312 2.168h5.794c1.797 0 2.697.712 2.697 2.472 0 1.798-.899 2.528-2.697 2.528h-14.806v6h16.814c2.754 0 4.857-.622 6.311-2.076 1.453-1.453 2.18-3.576 2.18-6.33 0-2.716-.726-4.819-2.18-6.273zm-95.682-13.321h-8.95L273.972 39.4V17.773h-7v38h7v-13.39l11.296 13.39h9.18L281.94 40.282l11.474-12.509zm34.558 28h8v-28h-8v28zm3.725-30.21a3.844 3.844 0 1 0 0-7.688 3.844 3.844 0 0 0 0 7.688zm-19 2.21h-12.198c-1.913 0-3.527 1.76-3.527 3.673v24.327h8v-22h6.119c1.951 0 3.543.547 4.403 1.408.861.861 1.477 2.383 1.477 4.334v16.259h7V39.572c0-4.054-.76-7.104-2.596-8.94-1.836-1.837-4.624-2.859-8.678-2.859z"/><path fill="#FF6B00" d="M153.672 72.07h4.83l-10.416 27.889h-5.376L132.294 72.07h4.998l8.19 23.353 8.19-23.353zm28.728 3.192c2.295 2.437 3.444 6.021 3.444 10.752 0 4.732-1.148 8.316-3.444 10.752-2.296 2.437-5.67 3.654-10.122 3.654s-7.827-1.218-10.122-3.654c-2.296-2.436-3.444-6.02-3.444-10.752 0-4.731 1.147-8.315 3.444-10.752 2.295-2.436 5.67-3.654 10.122-3.654s7.826 1.219 10.122 3.654zm-1.344 10.752c0-3.584-.742-6.223-2.226-7.917-1.484-1.693-3.668-2.541-6.552-2.541-2.884 0-5.068.848-6.552 2.541-1.484 1.694-2.226 4.333-2.226 7.917 0 3.585.741 6.224 2.226 7.917 1.484 1.694 3.668 2.541 6.552 2.541 2.883 0 5.067-.847 6.552-2.541 1.484-1.693 2.226-4.332 2.226-7.917zm25.158-13.944-7.393 13.188-7.391-13.188h-4.998l10.08 17.221v10.668h4.536V89.29l10.037-17.221h-4.871zm17.723 0 10.794 27.889h-5.04l-2.436-6.721h-12.18l-2.437 6.721h-4.872L218.56 72.07h5.377zm1.933 17.262-4.704-13.063-4.746 13.063h9.45zm21.503-1.47h7.561v8.19h-5.712c-1.736 0-3.199-.189-4.389-.567-1.191-.378-2.157-.973-2.898-1.784-.742-.813-1.281-1.849-1.617-3.108s-.504-2.786-.504-4.578c0-1.791.168-3.318.504-4.578s.875-2.295 1.617-3.107c.741-.813 1.707-1.407 2.898-1.785 1.189-.378 2.652-.567 4.389-.567h9.03V72.07h-9.954c-4.509 0-7.848 1.128-10.018 3.382s-3.255 5.774-3.255 10.563 1.085 8.31 3.255 10.563 5.509 3.381 10.018 3.381h11.172V83.956h-12.097v3.906zm25.684 7.665c-1.135-.321-2.065-.818-2.793-1.49-.729-.673-1.289-1.519-1.681-2.541-.393-1.022-.63-2.247-.714-3.676h15.624v-3.905h-15.582c.111-1.372.363-2.555.756-3.549.392-.994.952-1.82 1.681-2.479.728-.657 1.645-1.141 2.751-1.449 1.105-.308 2.442-.462 4.011-.462h6.762V72.07h-7.602c-4.536 0-7.883 1.142-10.038 3.424-2.156 2.282-3.234 5.789-3.234 10.521 0 4.761 1.078 8.274 3.234 10.542 2.155 2.269 5.502 3.402 10.038 3.402h7.979V96.01h-7.14c-1.568 0-2.919-.161-4.052-.483zm33.263-9.617c-1.386-1.33-3.423-1.995-6.11-1.995h-4.284c-2.688 0-4.032-1.316-4.032-3.948 0-2.66 1.344-3.99 4.032-3.99h11.34V72.07H295.17c-5.349 0-8.022 2.633-8.022 7.896 0 2.66.679 4.641 2.037 5.943 1.357 1.302 3.366 1.952 6.027 1.952h4.284c2.771 0 4.157 1.358 4.157 4.074 0 2.745-1.4 4.116-4.199 4.116h-11.677v3.906h12.433c2.688 0 4.725-.665 6.11-1.995 1.387-1.33 2.079-3.339 2.079-6.027 0-2.687-.692-4.695-2.079-6.025z"/><circle fill="#FFF0E5" cx="56" cy="56" r="56"/><path fill="#E05A00" d="M44.047 4h4.036v24.5h-4.036zM64 4h4v24.5h-4z"/><path fill="#FFA666" d="M24 40c0-6.627 5.373-12 12-12h40c6.627 0 12 5.373 12 12v56c0 4.418-3.582 8-8.063 8h-48C27.582 104 24 100.418 24 96V40z"/><path fill="#FF7E1D" d="M76 28c6.627 0 12 5.373 12 12v56c0 4.418-3.582 8-8.063 8H76M36 28c-6.627 0-12 5.373-12 12v56c0 4.418 3.582 8 7.938 8H36V28z"/><path fill="#E05A00" d="M32 104V54a6 6 0 0 1 6-6h36a6 6 0 0 1 6 6v50"/><path fill="#FF8D40" d="M36 103.958V56a4 4 0 0 1 4-4h32a4 4 0 0 1 4 4v47.958"/><path fill="#E05A00" d="M44 104v4a4 4 0 0 1-8 0v-4M75.937 104v4a4 4 0 0 1-8 0v-4"/><path fill="#EA6B15" d="M44 80a4 4 0 0 1-4 4H24a4 4 0 0 1-4-4v-8a4 4 0 0 1 4-4h16a4 4 0 0 1 4 4v8z"/><g fill="#FFF"><path d="M27.473 70.762a4.666 4.666 0 0 0-4.749 4.582c-.041 2.273 1.561 4.209 3.801 4.688.314.067.216.198.19.36-.061.372-.001.866.732.828 2.241-.116 4.564-3.236 4.608-5.711a4.665 4.665 0 0 0-4.582-4.747zm-.132 6.962a2.339 2.339 0 1 1 .085-4.677 2.339 2.339 0 0 1-.085 4.677zM33.511 79.985a.583.583 0 0 0 .752-.204l.043-.067a8.09 8.09 0 0 0 .769-1.605l.026-.075a.581.581 0 0 1 .976-.229l2.246 2.31a.584.584 0 0 0 .825.015l.84-.814a.584.584 0 0 0 .015-.825l-1.996-2.067a1.168 1.168 0 0 1 .029-1.65l2.046-1.971a.584.584 0 0 0 .015-.825l-.811-.841a.584.584 0 0 0-.825-.015l-2.303 2.218a.583.583 0 0 1-.964-.252l-.02-.066a8.08 8.08 0 0 0-.706-1.631l-.047-.08a.583.583 0 0 0-.737-.242l-1.109.479a.584.584 0 0 0-.272.84l.048.079c.532.892.829 1.938.809 3.053a5.745 5.745 0 0 1-.919 3.025l-.058.086a.581.581 0 0 0 .238.836l1.09.518z"/></g><path fill="#FFA666" d="M68 4a4 4 0 0 1-4 4H48a4 4 0 0 1 0-8h16a4 4 0 0 1 4 4z"/><path fill="#E05A00" d="M68 38a2 2 0 0 0-2-2H46a2 2 0 0 0-2 2v4a2 2 0 0 0 2 2h20a2 2 0 0 0 2-2v-4z"/></svg>